<svg xmlns="http://www.w3.org/2000/svg" viewBox="0 0 512 512">
  <rect width="512" height="512" rx="112" fill="#edeae3"/>
  <g transform="translate(256,256)">
    <!-- Stylized leaf/basket mark -->
    <path d="M-60,-80 C-60,-80 -20,-120 40,-80 C100,-40 80,20 60,60 C40,100 -20,120 -60,100 C-100,80 -100,20 -80,-20 C-60,-60 -60,-80 -60,-80Z" fill="none" stroke="#8b6e4e" stroke-width="8" stroke-linecap="round"/>
    <path d="M-40,-40 C-10,-70 40,-50 50,-10 C60,30 30,70 -10,80" fill="none" stroke="#8b6e4e" stroke-width="5" stroke-linecap="round" opacity="0.5"/>
    <path d="M-30,0 C0,-20 30,-10 30,20" fill="none" stroke="#8b6e4e" stroke-width="4" stroke-linecap="round" opacity="0.35"/>
    <!-- Small dot accent -->
    <circle cx="-10" cy="10" r="6" fill="#8b6e4e" opacity="0.6"/>
  </g>
</svg>
